# xmcd
#
# Track frame offsets:
#	150
#	14840
#	28585
#	38960
#	50800
#	63082
#	77255
#	87815
#	98525
#	108632
#	120252
#	130745
#	142490
#	160327
#	171792
#	183950
#	194442
#	213612
#	226042
#	237245
#
# Disc length: 3345
#
# Revision: 1
# Processed by: cddbd v1.5.1PL0 Copyright (c) Steve Scherf et al.
# Submitted via: VisiTrax 2.9.2.167 - For more info visit www.synapsa.com
# Normalized: r0:DSETVAR1
#
DISCID=0d0d0f14
DTITLE=Various Artist - Music of the Century - Best of Country
DYEAR=1900
DGENRE=
TTITLE0=Glen Cambell - Rhinestone Cowboy
TTITLE1=Billie Jo Spears - Mr. Walker, It's All Over
TTITLE2=Jodi Miller - Queen Of The House
TTITLE3=Wanda Jackson - Right or Wrong
TTITLE4=Merle Haggard And The Strangers - Okie From Muskogee
TTITLE5=Dr. Hook - A Couple More Year's
TTITLE6=Jessie Colter - What's Happened To Blue Eyes
TTITLE7=Dave Dudley - Six Day On The Road
TTITLE8=Ned Miller - From A Jack To A King
TTITLE9=Bobbie Gentry and Glen Campbell - All I Have To Do Is Dream
TTITLE10=Ferlin Husky - Wings Of A Dove
TTITLE11=Tennessee Ernie Ford - Sixteen Tons
TTITLE12=Bobby Goldsboro - Honey
TTITLE13=Sonny James - Young Love
TTITLE14=Melba Montgomery - Baby, You've Got What It Takes
TTITLE15=Ricky Nelson - Hello Mary Lou
TTITLE16=Bobbie Gentry - Ode To Billy Joe
TTITLE17=Louvin Brothers - My Baby's Gone
TTITLE18=Conway Twitty - It's Only Make Believe
TTITLE19=John Denver - Thank God I'm A Country Boy
EXTD=
EXTT0=
EXTT1=
EXTT2=
EXTT3=
EXTT4=
EXTT5=
EXTT6=
EXTT7=
EXTT8=
EXTT9=
EXTT10=
EXTT11=
EXTT12=
EXTT13=
EXTT14=
EXTT15=
EXTT16=
EXTT17=
EXTT18=
EXTT19=
PLAYORDER=
